<mxfile host="app.diagrams.net" modified="2023-03-24T18:32:27.258Z" agent="Mozilla/5.0 (Windows NT 10.0; Win64; x64) AppleWebKit/537.36 (KHTML, like Gecko) Chrome/111.0.0.0 Safari/537.36" etag="L-vwlucuR1hJCEVWYWcd" version="21.1.1" type="google">
  <diagram name="StrÃ¡nka-1" id="LFsgXBYCWbJAg406_z8w">
    <mxGraphModel grid="1" page="1" gridSize="10" guides="1" tooltips="1" connect="1" arrows="1" fold="1" pageScale="1" pageWidth="827" pageHeight="1169" math="0" shadow="0">
      <root>
        <mxCell id="0" />
        <mxCell id="1" parent="0" />
        <mxCell id="54FWo_mg7JZWX-MtP0c6-1" value="MPR Client" style="shape=umlFrame;whiteSpace=wrap;html=1;pointerEvents=0;width=80;height=30;" vertex="1" parent="1">
          <mxGeometry y="20" width="490" height="700" as="geometry" />
        </mxCell>
        <mxCell id="54FWo_mg7JZWX-MtP0c6-2" value="src" style="shape=folder;fontStyle=1;tabWidth=110;tabHeight=30;tabPosition=left;html=1;boundedLbl=1;labelInHeader=1;container=1;collapsible=0;recursiveResize=0;whiteSpace=wrap;" vertex="1" parent="1">
          <mxGeometry x="24" y="60" width="450" height="530" as="geometry" />
        </mxCell>
        <mxCell id="54FWo_mg7JZWX-MtP0c6-3" value="app.css" style="html=1;whiteSpace=wrap;" vertex="1" parent="54FWo_mg7JZWX-MtP0c6-2">
          <mxGeometry width="110" height="30" relative="1" as="geometry">
            <mxPoint x="140" y="260" as="offset" />
          </mxGeometry>
        </mxCell>
        <mxCell id="54FWo_mg7JZWX-MtP0c6-6" value="lib" style="shape=folder;fontStyle=1;tabWidth=110;tabHeight=30;tabPosition=left;html=1;boundedLbl=1;labelInHeader=1;container=1;collapsible=0;recursiveResize=0;whiteSpace=wrap;" vertex="1" parent="54FWo_mg7JZWX-MtP0c6-2">
          <mxGeometry x="20" y="50" width="420" height="190" as="geometry" />
        </mxCell>
        <mxCell id="54FWo_mg7JZWX-MtP0c6-7" value="favicon" style="html=1;whiteSpace=wrap;" vertex="1" parent="54FWo_mg7JZWX-MtP0c6-6">
          <mxGeometry width="80" height="30" relative="1" as="geometry">
            <mxPoint x="10" y="50" as="offset" />
          </mxGeometry>
        </mxCell>
        <mxCell id="aoPiMM_ceICKtqRYvMzr-1" value="assets" style="shape=folder;fontStyle=1;tabWidth=110;tabHeight=30;tabPosition=left;html=1;boundedLbl=1;labelInHeader=1;container=1;collapsible=0;recursiveResize=0;whiteSpace=wrap;" vertex="1" parent="54FWo_mg7JZWX-MtP0c6-6">
          <mxGeometry x="10" y="100" width="124" height="70" as="geometry" />
        </mxCell>
        <mxCell id="aoPiMM_ceICKtqRYvMzr-2" value="components" style="shape=folder;fontStyle=1;tabWidth=110;tabHeight=30;tabPosition=left;html=1;boundedLbl=1;labelInHeader=1;container=1;collapsible=0;recursiveResize=0;whiteSpace=wrap;" vertex="1" parent="54FWo_mg7JZWX-MtP0c6-6">
          <mxGeometry x="148" y="100" width="124" height="70" as="geometry" />
        </mxCell>
        <mxCell id="aoPiMM_ceICKtqRYvMzr-14" style="edgeStyle=orthogonalEdgeStyle;rounded=0;orthogonalLoop=1;jettySize=auto;html=1;entryX=0;entryY=0;entryDx=55;entryDy=0;entryPerimeter=0;dashed=1;endArrow=none;endFill=0;" edge="1" parent="54FWo_mg7JZWX-MtP0c6-6" source="aoPiMM_ceICKtqRYvMzr-5" target="aoPiMM_ceICKtqRYvMzr-2">
          <mxGeometry relative="1" as="geometry">
            <Array as="points">
              <mxPoint x="225" y="80" />
            </Array>
          </mxGeometry>
        </mxCell>
        <mxCell id="aoPiMM_ceICKtqRYvMzr-5" value="&lt;br&gt;&lt;br&gt;Components used in pages." style="shape=note;whiteSpace=wrap;html=1;backgroundOutline=1;darkOpacity=0.05;size=23;" vertex="1" parent="54FWo_mg7JZWX-MtP0c6-6">
          <mxGeometry x="192" y="-10" width="80" height="90" as="geometry" />
        </mxCell>
        <mxCell id="aoPiMM_ceICKtqRYvMzr-20" value="utils" style="shape=folder;fontStyle=1;tabWidth=110;tabHeight=30;tabPosition=left;html=1;boundedLbl=1;labelInHeader=1;container=1;collapsible=0;recursiveResize=0;whiteSpace=wrap;" vertex="1" parent="54FWo_mg7JZWX-MtP0c6-6">
          <mxGeometry x="280" y="100" width="124" height="70" as="geometry" />
        </mxCell>
        <mxCell id="--RPs3bpEcYwjV7fNc_N-1" value="axios" style="html=1;whiteSpace=wrap;" vertex="1" parent="aoPiMM_ceICKtqRYvMzr-20">
          <mxGeometry x="9.5" y="34" width="80" height="30" as="geometry" />
        </mxCell>
        <mxCell id="aoPiMM_ceICKtqRYvMzr-21" value="&lt;br&gt;&lt;br&gt;Helper functions and utilities" style="shape=note;whiteSpace=wrap;html=1;backgroundOutline=1;darkOpacity=0.05;size=23;" vertex="1" parent="54FWo_mg7JZWX-MtP0c6-6">
          <mxGeometry x="302" y="-10" width="80" height="90" as="geometry" />
        </mxCell>
        <mxCell id="aoPiMM_ceICKtqRYvMzr-22" style="edgeStyle=orthogonalEdgeStyle;rounded=0;orthogonalLoop=1;jettySize=auto;html=1;dashed=1;endArrow=none;endFill=0;" edge="1" parent="54FWo_mg7JZWX-MtP0c6-6" source="aoPiMM_ceICKtqRYvMzr-21" target="aoPiMM_ceICKtqRYvMzr-20">
          <mxGeometry relative="1" as="geometry">
            <mxPoint x="235" y="90" as="sourcePoint" />
            <mxPoint x="213" y="110" as="targetPoint" />
            <Array as="points">
              <mxPoint x="342" y="100" />
              <mxPoint x="342" y="100" />
            </Array>
          </mxGeometry>
        </mxCell>
        <mxCell id="54FWo_mg7JZWX-MtP0c6-8" value="routes" style="shape=folder;fontStyle=1;tabWidth=110;tabHeight=30;tabPosition=left;html=1;boundedLbl=1;labelInHeader=1;container=1;collapsible=0;recursiveResize=0;whiteSpace=wrap;" vertex="1" parent="54FWo_mg7JZWX-MtP0c6-2">
          <mxGeometry x="20" y="310" width="380" height="190" as="geometry" />
        </mxCell>
        <mxCell id="54FWo_mg7JZWX-MtP0c6-9" value="layout.svetle" style="html=1;whiteSpace=wrap;" vertex="1" parent="54FWo_mg7JZWX-MtP0c6-8">
          <mxGeometry width="80" height="30" relative="1" as="geometry">
            <mxPoint x="10" y="50" as="offset" />
          </mxGeometry>
        </mxCell>
        <mxCell id="54FWo_mg7JZWX-MtP0c6-13" value="(auth)" style="shape=folder;fontStyle=1;tabWidth=110;tabHeight=30;tabPosition=left;html=1;boundedLbl=1;labelInHeader=1;container=1;collapsible=0;recursiveResize=0;whiteSpace=wrap;" vertex="1" parent="54FWo_mg7JZWX-MtP0c6-8">
          <mxGeometry x="10" y="90" width="154" height="80" as="geometry" />
        </mxCell>
        <mxCell id="aoPiMM_ceICKtqRYvMzr-6" value="pages" style="html=1;whiteSpace=wrap;" vertex="1" parent="54FWo_mg7JZWX-MtP0c6-13">
          <mxGeometry x="4" y="40" width="66" height="30" as="geometry" />
        </mxCell>
        <mxCell id="aoPiMM_ceICKtqRYvMzr-7" value="layouts" style="html=1;whiteSpace=wrap;" vertex="1" parent="54FWo_mg7JZWX-MtP0c6-13">
          <mxGeometry x="78" y="40" width="66" height="30" as="geometry" />
        </mxCell>
        <mxCell id="aoPiMM_ceICKtqRYvMzr-11" value="(unauth)" style="shape=folder;fontStyle=1;tabWidth=110;tabHeight=30;tabPosition=left;html=1;boundedLbl=1;labelInHeader=1;container=1;collapsible=0;recursiveResize=0;whiteSpace=wrap;" vertex="1" parent="54FWo_mg7JZWX-MtP0c6-8">
          <mxGeometry x="200" y="90" width="154" height="80" as="geometry" />
        </mxCell>
        <mxCell id="aoPiMM_ceICKtqRYvMzr-12" value="pages" style="html=1;whiteSpace=wrap;" vertex="1" parent="aoPiMM_ceICKtqRYvMzr-11">
          <mxGeometry x="4" y="40" width="66" height="30" as="geometry" />
        </mxCell>
        <mxCell id="aoPiMM_ceICKtqRYvMzr-13" value="layouts" style="html=1;whiteSpace=wrap;" vertex="1" parent="aoPiMM_ceICKtqRYvMzr-11">
          <mxGeometry x="78" y="40" width="66" height="30" as="geometry" />
        </mxCell>
        <mxCell id="aoPiMM_ceICKtqRYvMzr-19" value="page.svetle" style="html=1;whiteSpace=wrap;" vertex="1" parent="54FWo_mg7JZWX-MtP0c6-8">
          <mxGeometry x="110" y="50" width="80" height="30" as="geometry" />
        </mxCell>
        <mxCell id="54FWo_mg7JZWX-MtP0c6-10" value="app.html" style="html=1;whiteSpace=wrap;" vertex="1" parent="54FWo_mg7JZWX-MtP0c6-2">
          <mxGeometry x="20" y="260" width="110" height="30" as="geometry" />
        </mxCell>
        <mxCell id="54FWo_mg7JZWX-MtP0c6-4" value="static" style="shape=folder;fontStyle=1;tabWidth=110;tabHeight=30;tabPosition=left;html=1;boundedLbl=1;labelInHeader=1;container=1;collapsible=0;recursiveResize=0;whiteSpace=wrap;" vertex="1" parent="1">
          <mxGeometry x="24" y="600" width="150" height="100" as="geometry" />
        </mxCell>
        <mxCell id="54FWo_mg7JZWX-MtP0c6-5" value="favicon" style="html=1;whiteSpace=wrap;" vertex="1" parent="54FWo_mg7JZWX-MtP0c6-4">
          <mxGeometry width="80" height="30" relative="1" as="geometry">
            <mxPoint x="10" y="50" as="offset" />
          </mxGeometry>
        </mxCell>
        <mxCell id="aoPiMM_ceICKtqRYvMzr-4" style="edgeStyle=orthogonalEdgeStyle;rounded=0;orthogonalLoop=1;jettySize=auto;html=1;endArrow=none;endFill=0;dashed=1;" edge="1" parent="1">
          <mxGeometry relative="1" as="geometry">
            <mxPoint x="-25.999999999999773" y="247.0322580645161" as="sourcePoint" />
            <mxPoint x="54.00000000000023" y="247.0322580645161" as="targetPoint" />
            <Array as="points">
              <mxPoint x="14" y="247" />
              <mxPoint x="14" y="247" />
            </Array>
          </mxGeometry>
        </mxCell>
        <mxCell id="aoPiMM_ceICKtqRYvMzr-3" value="&lt;br&gt;&lt;br&gt;Images, videos, etc..." style="shape=note;whiteSpace=wrap;html=1;backgroundOutline=1;darkOpacity=0.05;" vertex="1" parent="1">
          <mxGeometry x="-100" y="179" width="80" height="80" as="geometry" />
        </mxCell>
        <mxCell id="aoPiMM_ceICKtqRYvMzr-15" value="&lt;br&gt;&lt;br&gt;&lt;br&gt;App root" style="shape=note;whiteSpace=wrap;html=1;backgroundOutline=1;darkOpacity=0.05;" vertex="1" parent="1">
          <mxGeometry x="-100" y="320" width="80" height="60" as="geometry" />
        </mxCell>
        <mxCell id="aoPiMM_ceICKtqRYvMzr-16" style="edgeStyle=orthogonalEdgeStyle;rounded=0;orthogonalLoop=1;jettySize=auto;html=1;dashed=1;endArrow=none;endFill=0;" edge="1" parent="1" source="aoPiMM_ceICKtqRYvMzr-19" target="aoPiMM_ceICKtqRYvMzr-15">
          <mxGeometry relative="1" as="geometry">
            <Array as="points">
              <mxPoint x="200" y="410" />
              <mxPoint x="-60" y="410" />
            </Array>
          </mxGeometry>
        </mxCell>
        <mxCell id="aoPiMM_ceICKtqRYvMzr-18" style="edgeStyle=orthogonalEdgeStyle;rounded=0;orthogonalLoop=1;jettySize=auto;html=1;endArrow=none;endFill=0;dashed=1;" edge="1" parent="1" target="54FWo_mg7JZWX-MtP0c6-8">
          <mxGeometry relative="1" as="geometry">
            <mxPoint x="-26" y="470" as="sourcePoint" />
            <Array as="points">
              <mxPoint x="24" y="470" />
              <mxPoint x="24" y="470" />
            </Array>
          </mxGeometry>
        </mxCell>
        <mxCell id="aoPiMM_ceICKtqRYvMzr-17" value="&lt;br&gt;&lt;br&gt;Defining public and private routes on client with pages" style="shape=note;whiteSpace=wrap;html=1;backgroundOutline=1;darkOpacity=0.05;" vertex="1" parent="1">
          <mxGeometry x="-100" y="420" width="80" height="110" as="geometry" />
        </mxCell>
      </root>
    </mxGraphModel>
  </diagram>
</mxfile>
